<?xml version="1.0" encoding="UTF-8"?>
<svg id="Layer_1" xmlns="http://www.w3.org/2000/svg" viewBox="0 0 259.43 186.47">
  <path d="M170.25,8.11H56.75v113.5h113.5V8.11ZM149.98,105.39h-72.97c-2.24,0-4.05-1.82-4.05-4.05s1.82-4.05,4.05-4.05h72.97c2.24,0,4.05,1.81,4.05,4.05s-1.82,4.05-4.05,4.05ZM149.98,81.07h-72.97c-2.24,0-4.05-1.81-4.05-4.05s1.82-4.05,4.05-4.05h72.97c2.24,0,4.05,1.81,4.05,4.05s-1.82,4.05-4.05,4.05ZM149.98,56.75h-72.97c-2.24,0-4.05-1.81-4.05-4.05s1.82-4.05,4.05-4.05h72.97c2.24,0,4.05,1.81,4.05,4.05s-1.82,4.05-4.05,4.05ZM149.98,32.43h-72.97c-2.24,0-4.05-1.82-4.05-4.05s1.82-4.05,4.05-4.05h72.97c2.24,0,4.05,1.81,4.05,4.05s-1.82,4.05-4.05,4.05ZM16.21,113.5V16.21C16.21,7.26,23.47,0,32.43,0h16.21v129.72h-16.21c-8.95,0-16.21-7.26-16.21-16.21ZM210.79,16.21v97.29c0,8.95-7.26,16.21-16.21,16.21h-16.21V0h16.21c8.95,0,16.21,7.26,16.21,16.21ZM8.11,32.43v64.86c-4.48,0-8.11-3.63-8.11-8.11v-48.64c0-4.48,3.63-8.11,8.11-8.11ZM235.11,32.43v64.86c0,4.48-3.63,8.11-8.11,8.11h-8.11V24.32h8.11c4.48,0,8.11,3.63,8.11,8.11ZM259.43,48.64v32.43h-16.21v-32.43h16.21ZM64.86,162.14v-32.43h16.21v32.43h-16.21ZM145.93,162.14v-32.43h16.21v32.43h-16.21ZM210.79,178.36v8.11H16.21v-8.11c0-4.48,3.63-8.11,8.11-8.11h178.36c4.48,0,8.11,3.63,8.11,8.11Z"/>
</svg>