<?xml version="1.0" encoding="UTF-8"?>
<svg id="Layer_1" xmlns="http://www.w3.org/2000/svg" viewBox="0 0 108.14 91.85">
  <defs>
    <style>
      .cls-1 {
        fill: #fff;
      }

      .cls-2 {
        fill: #000100;
      }
    </style>
  </defs>
  <rect class="cls-2" x="3.68" y="10.06" width="100.78" height="68.5" rx="5.82" ry="5.82"/>
  <rect class="cls-2" y="73.17" width="108.14" height="18.68" rx="4.01" ry="4.01"/>
  <path class="cls-1" d="M89.81,39.14h-15.37c-2,0-3.62-1.62-3.62-3.62h0c0-2,1.62-3.62,3.62-3.62h15.37c2,0,3.62,1.62,3.62,3.62h0c0,2-1.62,3.62-3.62,3.62Z"/>
  <g>
    <path class="cls-1" d="M34.49,39.14h-15.37c-2,0-3.62-1.62-3.62-3.62h0c0-2,1.62-3.62,3.62-3.62h15.37c2,0,3.62,1.62,3.62,3.62h0c0,2-1.62,3.62-3.62,3.62Z"/>
    <path class="cls-1" d="M23.18,43.2v-15.37c0-2,1.62-3.62,3.62-3.62h0c2,0,3.62,1.62,3.62,3.62v15.37c0,2-1.62,3.62-3.62,3.62h0c-2,0-3.62-1.62-3.62-3.62Z"/>
  </g>
  <path class="cls-2" d="M20.61,0h11.44c2.31,0,4.19,1.88,4.19,4.19v6.85h-19.82v-6.85c0-2.31,1.88-4.19,4.19-4.19Z"/>
  <path class="cls-2" d="M71.9,0h19.82v6.85c0,2.31-1.88,4.19-4.19,4.19h-11.44c-2.31,0-4.19-1.88-4.19-4.19V0h0Z" transform="translate(163.61 11.04) rotate(180)"/>
</svg>