<?xml version="1.0" encoding="UTF-8"?>
<svg id="Layer_1" xmlns="http://www.w3.org/2000/svg" viewBox="0 0 41.5 41.5">
  <defs>
    <style>
      .cls-1 {
        stroke: #fff;
        stroke-width: 2.41px;
      }

      .cls-1, .cls-2 {
        fill: #1d1d1b;
      }

      .cls-1, .cls-3 {
        stroke-miterlimit: 10;
      }

      .cls-4 {
        fill: #fff;
      }

      .cls-3 {
        fill: none;
        stroke: #1d1d1b;
        stroke-width: 3px;
      }
    </style>
  </defs>
  <circle class="cls-3" cx="22.37" cy="22.37" r="17.63"/>
  <path class="cls-2" d="M9.54,22.37H1.68c-.97,0-1.75-.83-1.67-1.79C.88,9.63,9.63.88,20.57,0c.97-.08,1.79.7,1.79,1.67v7.86c-7.09,0-12.83,5.74-12.83,12.83Z"/>
  <circle class="cls-1" cx="22.37" cy="22.37" r="9.19" transform="translate(-9.27 22.37) rotate(-45)"/>
  <path class="cls-4" d="M24.28,22.37c0,1.06-.86,1.91-1.91,1.91s-1.91-.86-1.91-1.91.86-1.91,1.91-1.91,1.91.86,1.91,1.91Z"/>
  <circle class="cls-4" cx="22.37" cy="16.89" r=".81"/>
  <path class="cls-4" d="M27.81,21.37c-.42.14-.89-.08-1.03-.51-.14-.42.08-.89.51-1.03.42-.14.89.08,1.03.51.14.42-.08.89-.51,1.03Z"/>
  <path class="cls-4" d="M25.07,27.2c-.27-.36-.21-.87.15-1.14.36-.27.86-.21,1.14.15.27.36.21.86-.15,1.14-.36.27-.87.21-1.14-.15Z"/>
  <path class="cls-4" d="M18.66,26.48c.25-.37.75-.48,1.13-.23.37.25.48.75.23,1.13-.25.37-.75.48-1.13.23-.37-.25-.48-.75-.23-1.13Z"/>
  <path class="cls-4" d="M17.28,20.18c.43.11.69.56.58.99-.11.43-.56.69-.99.58-.43-.11-.69-.56-.58-.99.11-.43.56-.69.99-.58Z"/>
</svg>