<?xml version="1.0" encoding="UTF-8"?>
<svg id="Layer_1" xmlns="http://www.w3.org/2000/svg" viewBox="0 0 127.64 98.23">
  <defs>
    <style>
      .cls-1 {
        fill: #1d1d1b;
      }
    </style>
  </defs>
  <path class="cls-1" d="M65.96,91.6c-4.09,0-7.82-2.4-9.49-6.12-7.81-17.4-7.81-29.62-7.81-39.43v-.51c0-9.82,0-22.03,7.81-39.43,1.67-3.72,5.39-6.12,9.49-6.12.47,0,.95.03,1.42.1,14.14,1.97,60.26,11.07,60.26,45.7s-46.12,43.74-60.26,45.7c-.46.06-.94.1-1.42.1ZM66.63,11.62c-6.45,14.72-6.45,24.92-6.45,33.93v.5c0,9.01,0,19.2,6.45,33.93,5.69-.84,18.59-3.22,29.77-8.71,13.09-6.43,19.73-15,19.73-25.47s-6.64-19.04-19.73-25.47c-11.18-5.49-24.08-7.87-29.77-8.71Z"/>
  <path class="cls-1" d="M65.96,90.69c-3.68,0-7.12-2.16-8.65-5.57-7.73-17.22-7.73-29.33-7.73-39.06v-.5c0-9.73,0-21.84,7.73-39.06,1.71-3.81,5.79-6.06,9.94-5.48h0c13.95,1.94,59.47,10.9,59.47,44.79s-45.52,42.85-59.47,44.79c-.43.06-.86.09-1.29.09ZM66.07,10.61c-6.81,15.25-6.81,25.71-6.81,34.94v.5c0,9.23,0,19.69,6.81,34.94,5.44-.77,18.99-3.13,30.73-8.9,13.43-6.6,20.24-15.44,20.24-26.29s-6.81-19.7-20.24-26.29c-11.74-5.76-25.29-8.13-30.73-8.89ZM65.92,10.59h0,0,0Z"/>
  <path class="cls-1" d="M0,43.59l41.6-13.06-.14,1.39c-.39,4-.46,7.57-.48,10.23v.67S0,55.68,0,55.68v-12.09Z"/>
  <path class="cls-1" d="M40.55,31.83L.92,44.26v10.16l39.14-12.27c.02-3.1.12-6.53.49-10.31Z"/>
  <path class="cls-1" d="M0,22.32L46.55,7.7l-.81,2c-1.22,3.6-2.21,7.22-2.94,10.77l-.11.53L0,34.4v-12.09Z"/>
  <path class="cls-1" d="M44.87,9.4l-.07-.21L.92,22.99v10.16l40.98-12.86c.7-3.38,1.65-7.01,2.97-10.88Z"/>
  <path class="cls-1" d="M0,64.87l40.98-12.86.02,1.23c.07,3.62.27,6.76.63,9.87l.09.75L0,76.95v-12.09Z"/>
  <path class="cls-1" d="M40.08,53.25L.92,65.54v10.16l39.8-12.49c-.42-3.63-.58-6.94-.63-9.96Z"/>
  <path class="cls-1" d="M0,86.14l42.74-13.42.21.99c.66,3.06,1.51,6.17,2.52,9.25l.29.88L0,98.23v-12.09Z"/>
  <path class="cls-1" d="M42.06,73.9L.92,86.81v10.16l43.69-13.73c-1.09-3.3-1.92-6.41-2.55-9.35Z"/>
</svg>