<?xml version="1.0" encoding="UTF-8"?>
<svg id="Layer_1" xmlns="http://www.w3.org/2000/svg" viewBox="0 0 87.1 109.53">
  <defs>
    <style>
      .cls-1 {
        fill: #1d1d1b;
      }

      .cls-2 {
        fill: none;
        stroke: #1d1d1b;
        stroke-miterlimit: 10;
        stroke-width: 3px;
      }
    </style>
  </defs>
  <line class="cls-2" x1="66.2" y1="9.53" x2="79.68" y2="72.35"/>
  <line class="cls-2" x1="54.87" y1="9.53" x2="61.61" y2="72.35"/>
  <line class="cls-2" x1="20.9" y1="9.53" x2="7.42" y2="72.35"/>
  <line class="cls-2" x1="32.22" y1="9.53" x2="25.48" y2="72.35"/>
  <line class="cls-2" x1="43.55" y1="9.53" x2="43.55" y2="72.35"/>
  <rect class="cls-1" y="71" width="87.1" height="15.26" rx="3.09" ry="3.09"/>
  <path class="cls-1" d="M19.34,0h48.42c2.02,0,3.65,1.64,3.65,3.65v9.39H15.69V3.65c0-2.02,1.64-3.65,3.65-3.65Z"/>
  <path class="cls-1" d="M18.2,89.77h50.69v11.98c0,4.3-3.49,7.79-7.79,7.79H25.99c-4.3,0-7.79-3.49-7.79-7.79v-11.98h0Z"/>
</svg>