<?xml version="1.0" encoding="UTF-8"?>
<svg id="Layer_1" xmlns="http://www.w3.org/2000/svg" viewBox="0 0 133.76 95.89">
  <defs>
    <style>
      .cls-1 {
        fill: #1d1d1b;
      }

      .cls-2 {
        fill: #fff;
      }

      .cls-3 {
        fill: #000100;
      }
    </style>
  </defs>
  <path class="cls-3" d="M10.59,28.82C6.96,33.56,0,42.23,0,49.03c0,5.8,4.79,10.59,10.59,10.59s10.59-4.79,10.59-10.59c0-6.79-6.96-15.46-10.59-20.21Z"/>
  <path class="cls-1" d="M94.77.05l-33.11,5.19c-2.35.37-4.34,1.94-5.25,4.14l-3.16,7.67-18.35,12.33c-1.78,1.2-2.25,3.61-1.06,5.39l38.59,57.43c2.57,3.83,7.76,4.84,11.58,2.27l46.06-30.95c3.83-2.57,4.84-7.76,2.27-11.58L98.6,1.72c-.84-1.25-2.33-1.91-3.83-1.67Z"/>
  <path class="cls-2" d="M68.8,13.48l20.35-3.56c2.16-.38,4.21,1.08,4.56,3.25h0c.34,2.11-1.06,4.11-3.17,4.5l-20.32,3.77c-2.17.4-4.25-1.06-4.6-3.25l-.03-.2c-.34-2.12,1.09-4.13,3.21-4.5Z"/>
  <path class="cls-1" d="M9.52,8.63l1.51,5.7c11.84,1.12,19.63,4.34,23.91,11.88l11.4-7.66C38.75,7.65,19.47,5.97,9.52,8.63Z"/>
</svg>