<?xml version="1.0" encoding="UTF-8"?>
<svg id="Layer_1" xmlns="http://www.w3.org/2000/svg" viewBox="0 0 42.01 41.5">
  <defs>
    <style>
      .cls-1 {
        fill: #1d1d1b;
      }

      .cls-2 {
        fill: none;
        stroke: #1d1d1b;
        stroke-linecap: round;
        stroke-miterlimit: 10;
        stroke-width: 3px;
      }
    </style>
  </defs>
  <rect class="cls-1" x="13.79" y="20.44" width="19.5" height="6.25" rx="3.13" ry="3.13" transform="translate(-9.76 23.55) rotate(-45)"/>
  <path class="cls-1" d="M16.25,7.23h0c3.49,0,6.33,2.84,6.33,6.33v11.74h-12.66v-11.74c0-3.49,2.84-6.33,6.33-6.33Z" transform="translate(-6.74 16.26) rotate(-45)"/>
  <path class="cls-1" d="M13.76,8.71l-5.07,5.07-5.76-5.76c-1.4-1.4-1.4-3.67,0-5.07h0c1.4-1.4,3.67-1.4,5.07,0l5.76,5.76Z"/>
  <line class="cls-2" x1="29.83" y1="37.48" x2="35.98" y2="28.53"/>
  <line class="cls-2" x1="26.17" y1="35.14" x2="33.46" y2="24.52"/>
  <path class="cls-1" d="M29.21,20.62c.43-.62,1.28-.78,1.91-.35.62.43.78,1.28.35,1.91l-7.3,10.61c-.05.07-.1.14-.16.19-.46.46-1.19.54-1.75.16l-2.8-2.8,9.75-9.71Z"/>
  <path class="cls-2" d="M39.71,40s2.6-2.81-1.55-6.96l-4.2,6.11"/>
  <rect class="cls-1" x="1.15" y=".36" width="2.84" height="4.43" transform="translate(-1.06 2.57) rotate(-45)"/>
</svg>