<?xml version="1.0" encoding="UTF-8"?>
<svg width="71px" height="76px" viewBox="0 0 71 76" version="1.1" xmlns="http://www.w3.org/2000/svg" xmlns:xlink="http://www.w3.org/1999/xlink">
    <!-- Generator: Sketch 64 (93537) - https://sketch.com -->
    <title>box copy</title>
    <desc>Created with Sketch.</desc>
    <g id="Page-1" stroke="none" stroke-width="1" fill="none" fill-rule="evenodd">
        <g id="box-copy" fill="#021388" fill-rule="nonzero">
            <g id="Group-2" transform="translate(0.004713, -0.000074)">
                <path d="M70.0662028,16.6397602 L35.8256042,0.109805936 C35.5220361,-0.0366019785 35.1685361,-0.0366019785 34.8651152,0.109805936 L0.624369364,16.6397602 C0.242589371,16.8240221 -6.11066753e-13,17.2106627 -6.11066753e-13,17.6345681 L-6.11066753e-13,57.7787639 C-6.11066753e-13,58.2026693 0.242589371,58.5893099 0.624369364,58.7735718 L34.8649679,75.3035261 C35.0166784,75.3767301 35.1810559,75.4134057 35.3452861,75.4134057 C35.5095163,75.4134057 35.6737465,75.3767301 35.8256042,75.3035261 L70.0662028,58.7735718 C70.4479828,58.5893099 70.6905721,58.2026693 70.6905721,57.7787639 L70.6905721,17.6347154 C70.6905721,17.2105154 70.4478355,16.8241694 70.0662028,16.6397602 Z M35.3452861,2.33140611 L67.0449561,17.6345681 L57.8558711,22.0706985 C57.7976909,22.0263637 57.7362703,21.9854166 57.6688107,21.9528651 L26.184481,6.75383832 L35.3452861,2.33140611 Z M23.6896548,8.00287163 L55.3432226,23.2837926 L48.86018,26.4135932 L17.2197212,11.1388585 L23.6896548,8.00287163 Z M56.0838051,25.3794584 L56.0838051,36.9486295 L50.0282029,39.8720744 L50.0282029,28.3029034 L56.0838051,25.3794584 Z M68.4811972,57.0856093 L36.4499735,72.5485828 L36.4499735,34.8578243 L44.090434,31.1693464 C44.6398319,30.9040742 44.8701961,30.2437656 44.6049238,29.6942204 C44.3396515,29.1449698 43.679343,28.9143111 43.1297978,29.1797306 L35.3452861,32.9378775 L32.2822086,31.4590692 C31.7326634,31.1935023 31.0723549,31.424161 30.8070826,31.9735589 C30.5418103,32.5229568 30.7721745,33.1834127 31.3215724,33.448685 L34.2405986,34.8578243 L34.2405986,72.5485828 L2.20937496,57.0853148 L2.20937496,19.3945562 L26.6008745,31.1697883 C26.7556781,31.2446125 26.9193191,31.2799625 27.0803089,31.2799625 C27.4909581,31.2799625 27.8854052,31.0498929 28.0758533,30.6552985 C28.3411256,30.1059006 28.1107614,29.4454448 27.5613635,29.1801725 L3.64561598,17.6345681 L14.6195814,12.3367816 L47.8035096,28.3566648 C47.8083702,28.3634402 47.81382,28.3694792 47.8188279,28.3761073 L47.8188279,41.6322098 C47.8188279,42.0123696 48.014284,42.3657223 48.3362636,42.5679538 C48.5150756,42.68019 48.7190746,42.7368973 48.9236627,42.7368973 C49.087451,42.7368973 49.2516812,42.7005163 49.4038335,42.6270177 L57.6688107,38.6370338 C58.0505907,38.4527719 58.29318,38.0662786 58.29318,37.6422259 L58.29318,24.3130668 L68.4811972,19.3947035 L68.4811972,57.0856093 L68.4811972,57.0856093 Z" id="Shape"></path>
                <path d="M11.3258452,52.8010421 L6.3009901,50.3752957 C5.75129761,50.1097288 5.09113637,50.3403876 4.82586408,50.8897855 C4.5605918,51.4391834 4.79095596,52.0996392 5.34035387,52.3649115 L10.365209,54.7906579 C10.5200125,54.8654821 10.6836536,54.9008321 10.8446434,54.9008321 C11.2552925,54.9008321 11.6497396,54.6707625 11.8401877,54.2761681 C12.1056073,53.7266229 11.8752431,53.0664617 11.3258452,52.8010421 Z" id="Path"></path>
                <path d="M15.9503616,49.7908424 L6.30791281,45.1358366 C5.75836761,44.8705643 5.09805908,45.1009285 4.83278679,45.6504737 C4.5676618,46.1998716 4.79802596,46.8603274 5.34742387,47.1255997 L14.9898727,51.7806055 C15.1446762,51.8552823 15.3083172,51.8907796 15.469307,51.8907796 C15.8799562,51.8907796 16.2744033,51.6607101 16.4648514,51.2661157 C16.7301237,50.7164232 16.4997595,50.0559674 15.9503616,49.7908424 Z" id="Path"></path>
            </g>
        </g>
    </g>
</svg>