<?xml version="1.0" encoding="UTF-8"?>
<svg xmlns="http://www.w3.org/2000/svg" version="1.1" viewBox="0 0 515.91 436.36">
  <defs>
    <style>
      .cls-1 {
        fill: #fff;
        opacity: 0;
      }

      .cls-2 {
        fill: none;
        stroke: #2a3176;
        stroke-linecap: round;
        stroke-linejoin: round;
        stroke-width: 20.81px;
      }
    </style>
  </defs>
  <!-- Generator: Adobe Illustrator 28.7.1, SVG Export Plug-In . SVG Version: 1.2.0 Build 142)  -->
  <g>
    <g id="Bg">
      <rect class="cls-1" x="925" y="925" width="150" height="150"/>
    </g>
    <g id="_x2014_ÎÓÈ_x5F_8">
      <g>
        <rect class="cls-2" x="50.31" y="351.67" width="389.13" height="27.77" rx="13.76" ry="13.76"/>
        <g>
          <line class="cls-2" x1="416.5" y1="196.13" x2="416.5" y2="351.67"/>
          <line class="cls-2" x1="73.25" y1="351.67" x2="73.25" y2="198.95"/>
        </g>
        <g>
          <g>
            <path class="cls-2" d="M48.65,164.68c0,17.36,14.65,31.44,32.73,31.44s32.71-14.08,32.71-31.44"/>
            <path class="cls-2" d="M114.09,164.68c0,17.36,14.63,31.44,32.71,31.44s32.71-14.08,32.71-31.44"/>
            <path class="cls-2" d="M244.93,164.68c0,.59-.02,1.16-.05,1.73v.05c-.97,16.53-15.23,29.66-32.66,29.66s-32.71-14.08-32.71-31.44"/>
            <path class="cls-2" d="M244.83,164.68c0,.59.02,1.16.05,1.73v.05c.97,16.55,15.23,29.66,32.66,29.66s32.71-14.08,32.71-31.44"/>
            <path class="cls-2" d="M310.25,164.68c0,17.36,14.65,31.44,32.71,31.44s32.71-14.08,32.71-31.44"/>
            <path class="cls-2" d="M375.67,164.68c0,17.36,14.65,31.44,32.71,31.44s32.71-14.08,32.71-31.44"/>
          </g>
          <path class="cls-2" d="M440.87,163.49l-35-109.2c-1.37-4.29-5.5-7.21-10.16-7.21H94.11c-4.67,0-8.79,2.93-10.16,7.21l-35,109.2h391.93Z"/>
          <line class="cls-2" x1="244.93" y1="164.68" x2="244.93" y2="47.09"/>
          <line class="cls-2" x1="179.51" y1="164.68" x2="197.82" y2="47.09"/>
          <line class="cls-2" x1="114.09" y1="164.68" x2="146.29" y2="47.09"/>
          <line class="cls-2" x1="310.82" y1="164.68" x2="292.51" y2="47.09"/>
          <line class="cls-2" x1="376.25" y1="164.68" x2="344.04" y2="47.09"/>
        </g>
        <polyline class="cls-2" points="111.48 177.52 111.48 316.65 183.27 316.65"/>
        <polyline class="cls-2" points="378.26 177.44 378.26 316.65 306.47 316.65"/>
        <g>
          <line class="cls-2" x1="306.47" y1="179.39" x2="306.47" y2="351.67"/>
          <line class="cls-2" x1="183.27" y1="351.67" x2="183.27" y2="179.39"/>
        </g>
        <line class="cls-2" x1="283.52" y1="253.7" x2="283.52" y2="283.35"/>
        <g>
          <line class="cls-2" x1="132.67" y1="242.71" x2="160.42" y2="216.04"/>
          <line class="cls-2" x1="133.5" y1="278.86" x2="170.88" y2="242.93"/>
        </g>
        <g>
          <line class="cls-2" x1="132.67" y1="242.71" x2="160.42" y2="216.04"/>
          <line class="cls-2" x1="133.5" y1="278.86" x2="170.88" y2="242.93"/>
        </g>
        <g>
          <line class="cls-2" x1="325.53" y1="248.96" x2="353.28" y2="222.29"/>
          <line class="cls-2" x1="326.36" y1="285.11" x2="363.74" y2="249.18"/>
        </g>
      </g>
    </g>
  </g>
</svg>