<?xml version="1.0" encoding="UTF-8"?>
<svg id="Layer_1" xmlns="http://www.w3.org/2000/svg" viewBox="0 0 78.47 40.66">
  <defs>
    <style>
      .cls-1 {
        fill: #25333f;
      }
    </style>
  </defs>
  <path class="cls-1" d="M29.9,26.86c-.08-.08-.17-.14-.27-.18l-2.88-18.77c-.08-.49-.54-.83-1.03-.76s-.83.54-.76,1.03l3.4,22.13c.08.49.54.83,1.03.76.09-.01.17-.04.24-.07.36-.16.58-.55.52-.96l-.07-.46,9.1,9c.3.29.75.34,1.09.14.07-.04.13-.09.18-.14.35-.35.35-.93,0-1.28l-10.54-10.43Z"/>
  <path class="cls-1" d="M78.28,14.28c-.5-2.25-1.94-4.18-3.95-5.29-5.33-2.94-11.01-5.2-16.9-6.71-5.9-1.52-12.02-2.28-18.19-2.28s-12.27.77-18.17,2.29c-5.89,1.51-11.58,3.77-16.91,6.72-2.01,1.11-3.46,3.04-3.96,5.29-.5,2.26-.01,4.63,1.35,6.5l12.02,16.55c1.56,2.15,4.01,3.33,6.52,3.33,1.17,0,2.35-.25,3.46-.79.25-.12.5-.24.75-.35,3.66-1.65,7.5-2.66,11.48-3.04l-3.8-3.76c-3.24.58-6.39,1.56-9.42,2.93-.28.13-.56.26-.84.39-1.65.79-3.63.28-4.71-1.21L4.97,18.29c-.64-.89-.88-2.01-.64-3.08.24-1.08.9-1.96,1.86-2.49C16.24,7.18,27.67,4.24,39.23,4.24s23.01,2.93,33.04,8.47c.96.53,1.62,1.42,1.86,2.49.24,1.07,0,2.19-.64,3.08l-12.03,16.56c-1.08,1.49-3.08,1.99-4.76,1.19-5.48-2.61-11.35-3.94-17.47-3.94-.9,0-1.79.03-2.67.09l4.24,4.19c4.92.2,9.65,1.38,14.08,3.49,3.53,1.68,7.74.62,10.02-2.52l12.03-16.56c1.36-1.87,1.85-4.24,1.35-6.5Z"/>
  <path class="cls-1" d="M56.67,12.06c.39.11.7.2.91.26.21.06.32.09.32.09,0,0-.11-.04-.31-.12-.2-.08-.5-.19-.88-.34-.76-.29-1.86-.68-3.19-1.12-1.33-.43-2.9-.91-4.6-1.35-1.7-.44-3.54-.85-5.4-1.16-.93-.15-1.87-.28-2.8-.38-.23-.02-.47-.05-.7-.06-.11,0-.23-.02-.34-.03-.12,0-.23-.02-.35-.03-.46-.03-.91-.06-1.35-.08-1.77-.08-3.44-.08-4.86-.02-1.43.05-2.61.16-3.44.24-.42.04-.75.08-.96.11-.04,0-.08,0-.11.01-.12.01-.21.13-.19.25l.38,2.23c.02.12.14.2.26.17.03,0,.07-.02.11-.02.22-.05.52-.11.9-.19.78-.16,1.9-.37,3.26-.55,1.36-.19,2.95-.35,4.67-.44.86-.04,1.75-.07,2.65-.05.9.01,1.82.06,2.73.13,1.84.14,3.67.38,5.38.67,1.71.29,3.31.62,4.66.94,1.36.31,2.48.61,3.27.83Z"/>
  <path class="cls-1" d="M39.51,24.75h.12c.16,0,.32-.01.48-.01.16,0,.32,0,.48,0,.32,0,.63,0,.95,0,.32,0,.64.01.96.03.16,0,.32.01.48.02.16,0,.32.02.47.03.16.01.32.02.47.03.16.01.31.03.47.04.31.02.61.06.91.09.6.06,1.18.14,1.73.23.27.04.54.09.8.13.26.05.51.09.75.14.24.05.47.09.68.14.22.05.42.09.62.13.39.09.72.17,1,.24.28.07.49.13.64.17.15.04.23.06.23.06,0,0-.08-.03-.22-.09-.14-.06-.35-.15-.61-.25-.26-.11-.59-.23-.96-.37-.19-.07-.39-.14-.6-.21-.21-.07-.43-.15-.67-.23-.23-.08-.48-.15-.73-.24-.25-.08-.52-.16-.79-.24-.54-.15-1.12-.31-1.72-.46-.3-.07-.6-.15-.92-.21-.16-.03-.31-.07-.47-.1-.16-.03-.32-.06-.48-.09-.16-.03-.32-.06-.48-.09-.16-.03-.32-.06-.49-.08-.32-.06-.65-.11-.98-.16-.33-.05-.66-.09-.99-.13-.17-.02-.33-.04-.49-.06-.16-.02-.32-.03-.48-.05h-.12s-.06-.02-.06-.02h-.07c-.08-.01-.16-.02-.24-.03-.16-.01-.32-.03-.48-.04-.32-.02-.64-.04-.95-.06-1.25-.06-2.42-.07-3.42-.04-.5.02-.96.04-1.37.06-.41.02-.76.05-1.06.08-.29.03-.52.05-.68.07,0,0,0,0,0,0-.12.01-.21.13-.19.25l.37,2.22c.02.12.14.2.26.17,0,0,0,0,0,0,.14-.03.35-.08.62-.14.27-.06.6-.13.98-.2.38-.07.81-.15,1.27-.23.94-.15,2.04-.29,3.23-.39.3-.02.6-.04.91-.06.15-.01.31-.02.46-.02.08,0,.16,0,.23-.01h.03s.01,0,.01,0h0s-.01,0,0,0h.06Z"/>
</svg>